<svg xmlns="http://www.w3.org/2000/svg" xmlns:svg="http://www.w3.org/2000/svg" xmlns:xlink="http://www.w3.org/1999/xlink" id="svg4518" width="64" height="64" version="1.1"><defs id="defs4520"><linearGradient id="linearGradient4402" x1="63.397" x2="63.397" y1="-12.489" y2="5.468" gradientTransform="matrix(1.6579954,0,0,1.6579577,-55.127981,53.820816)" gradientUnits="userSpaceOnUse" xlink:href="#linearGradient4873-4"/><linearGradient id="linearGradient4873-4"><stop id="stop4875-0" offset="0" style="stop-color:#fff;stop-opacity:1"/><stop id="stop4877-7" offset="1" style="stop-color:#fff;stop-opacity:0"/></linearGradient><radialGradient id="radialGradient4405" cx="23.407" cy="3.99" r="20.397" fx="23.407" fy="3.99" gradientTransform="matrix(0,2.0728187,-2.736084,0,58.916984,-18.201198)" gradientUnits="userSpaceOnUse" xlink:href="#linearGradient3242-5"/><linearGradient id="linearGradient3242-5"><stop id="stop3244-2" offset="0" style="stop-color:#f8b17e;stop-opacity:1"/><stop id="stop3246-5" offset=".262" style="stop-color:#e35d4f;stop-opacity:1"/><stop id="stop3248-9" offset=".661" style="stop-color:#c6262e;stop-opacity:1"/><stop id="stop3250-7" offset="1" style="stop-color:#690b54;stop-opacity:1"/></linearGradient><linearGradient id="linearGradient3549" x1="71.204" x2="71.204" y1="15.369" y2="40.496" gradientTransform="matrix(2.363279,0,0,2.363279,-138.57229,-33.857264)" gradientUnits="userSpaceOnUse" xlink:href="#linearGradient4806-2-9"/><linearGradient id="linearGradient4806-2-9"><stop id="stop4808-4-5" offset="0" style="stop-color:#fff;stop-opacity:1"/><stop id="stop4810-0-5" offset=".424" style="stop-color:#fff;stop-opacity:.23529412"/><stop id="stop4812-8-4" offset=".821" style="stop-color:#fff;stop-opacity:.15686275"/><stop id="stop4814-0-5" offset="1" style="stop-color:#fff;stop-opacity:.39215687"/></linearGradient><linearGradient id="linearGradient3520" x1="37.5" x2="49.09" y1="23" y2="23.173" gradientTransform="matrix(1.3155762,0,0,-1.3155762,-1.523661,62.258671)" gradientUnits="userSpaceOnUse" xlink:href="#linearGradient3678-5"/><linearGradient id="linearGradient3678-5"><stop id="stop3680-6" offset="0" style="stop-color:#fff;stop-opacity:.13368984"/><stop id="stop3682-5" offset="1" style="stop-color:#fff;stop-opacity:0"/></linearGradient><linearGradient id="linearGradient3524" x1="4.49" x2="47.5" y1="23" y2="23" gradientTransform="matrix(1.3155762,0,0,-1.3155762,-1.523661,62.258671)" gradientUnits="userSpaceOnUse" xlink:href="#linearGradient3672-3"/><linearGradient id="linearGradient3672-3"><stop id="stop3674-4" offset="0" style="stop-color:#fff;stop-opacity:.49197862"/><stop id="stop3676-5" offset="1" style="stop-color:#fff;stop-opacity:1"/></linearGradient><linearGradient id="linearGradient3527" x1="14.893" x2="2.832" y1="23.707" y2="24.109" gradientTransform="matrix(0.93025283,-0.93025283,-0.93025283,-0.93025283,29.45432,77.237902)" gradientUnits="userSpaceOnUse" xlink:href="#linearGradient3678-5"/><linearGradient id="linearGradient3531" x1="48.127" x2="2.873" y1="25.828" y2="24.414" gradientTransform="matrix(0.93025283,-0.93025283,-0.93025283,-0.93025283,29.45432,77.237902)" gradientUnits="userSpaceOnUse" xlink:href="#linearGradient3672-3"/><linearGradient id="linearGradient3535" x1="46.006" x2="4.287" y1="23.707" y2="27.243" gradientTransform="matrix(0.93025283,0.93025283,-0.93025283,0.93025283,29.697899,-13.116851)" gradientUnits="userSpaceOnUse" xlink:href="#linearGradient3672-3"/><linearGradient id="linearGradient3538" x1="14.893" x2="4.063" y1="22.293" y2="21.83" gradientTransform="matrix(0.93025283,0.93025283,-0.93025283,0.93025283,29.697899,-13.116851)" gradientUnits="userSpaceOnUse" xlink:href="#linearGradient3678-5"/><linearGradient id="linearGradient3543" x1="3.5" x2="47.5" y1="23" y2="23" gradientTransform="matrix(0,1.3155762,1.3155762,0,1.765274,-1.54678)" gradientUnits="userSpaceOnUse" xlink:href="#linearGradient3672-3"/><linearGradient id="linearGradient3546" x1="35.5" x2="48.263" y1="22" y2="21.914" gradientTransform="matrix(0,1.3155762,1.3155762,0,1.765274,-1.54678)" gradientUnits="userSpaceOnUse" xlink:href="#linearGradient3678-5"/><radialGradient id="radialGradient3553" cx="15.026" cy="8.626" r="20" fx="-.941" fy="8.626" gradientTransform="matrix(-9.6613061e-8,1.5876836,-1.495828,-1.0935734e-7,44.639514,2.8743965)" gradientUnits="userSpaceOnUse" xlink:href="#linearGradient4632-92-3-0-8-7"/><linearGradient id="linearGradient4632-92-3-0-8-7"><stop id="stop4634-68-8-0-2-6" offset="0" style="stop-color:#cdc9e3;stop-opacity:1"/><stop id="stop4636-8-21-7-1-6" offset="1" style="stop-color:#9389cb;stop-opacity:1"/></linearGradient><linearGradient id="linearGradient3820-7-2"><stop id="stop3822-2-6" offset="0" style="stop-color:#3d3d3d;stop-opacity:1"/><stop id="stop3864-8-7" offset=".5" style="stop-color:#686868;stop-opacity:.49803922"/><stop id="stop3824-1-2" offset="1" style="stop-color:#686868;stop-opacity:0"/></linearGradient><radialGradient id="radialGradient4516" cx="99.157" cy="186.171" r="62.769" fx="99.157" fy="186.171" gradientTransform="matrix(1,0,0,0.1666667,0,155.14216)" gradientUnits="userSpaceOnUse" xlink:href="#linearGradient3820-7-2"/></defs><metadata id="metadata4523"/><g id="layer1"><path id="path3818-0" d="m 161.92613,186.17059 a 62.769119,10.461519 0 1 1 -125.538236,0 62.769119,10.461519 0 1 1 125.538236,0 z" transform="matrix(0.38235362,0,0,0.71691308,-5.913044,-76.968133)" style="fill:url(#radialGradient4516);fill-opacity:1;stroke:none"/><path id="path2555-7-65-9" d="M 31.999941,2.5000567 C 15.722891,2.5000567 2.5,15.722948 2.5,31.999997 c 0,16.27705 13.222891,29.499946 29.499941,29.499941 16.277043,0 29.499953,-13.222891 29.499943,-29.499941 0,-16.277049 -13.2229,-29.4999403 -29.499943,-29.4999403 z" style="color:#000;fill:url(#radialGradient3553);fill-opacity:1;fill-rule:nonzero;stroke:none;stroke-width:1;marker:none;visibility:visible;display:inline;overflow:visible;enable-background:accumulate"/><path id="path3805-8" d="M 31.979424,3.7157009 A 12.497974,28.284887 0 0 0 29.47491,59.690953" style="fill:none;stroke:url(#linearGradient3546);stroke-width:1;stroke-linecap:round;stroke-linejoin:round;stroke-miterlimit:4;stroke-opacity:1;stroke-dasharray:none;stroke-dashoffset:0"/><path id="path3609-5" d="M 37.317564,57.622374 A 12.497974,28.284887 0 0 0 31.993514,3.7156062" style="opacity:.8;fill:none;stroke:url(#linearGradient3543);stroke-width:1;stroke-linecap:round;stroke-linejoin:round;stroke-miterlimit:4;stroke-opacity:1;stroke-dasharray:none;stroke-dashoffset:0"/><g id="g3191" transform="matrix(1.4390215,0,0,1.4390215,98.587414,-8.161078)"><path id="path3775-8" d="m -44.199125,45.136098 a 1.8282365,1.8282365 0 0 0 3.656473,0 1.8282365,1.8282365 0 1 0 -3.656473,0 z" style="opacity:.8;color:#000;fill:#fff;fill-opacity:1;fill-rule:nonzero;stroke:#fff;stroke-width:.69521314;stroke-linecap:round;stroke-linejoin:round;stroke-miterlimit:4;stroke-opacity:.52127662;stroke-dasharray:none;stroke-dashoffset:0;marker:none;visibility:visible;display:inline;overflow:visible;enable-background:accumulate"/></g><path id="path3801-6" d="M 15.54219,10.279146 A 28.284887,12.497974 45 0 1 51.469844,52.485791" style="fill:none;stroke:url(#linearGradient3538);stroke-width:1;stroke-linecap:round;stroke-linejoin:round;stroke-miterlimit:4;stroke-opacity:1;stroke-dasharray:none;stroke-dashoffset:0"/><path id="path3611-3" d="M 52.023964,52.000849 A 28.284887,12.497974 45 0 1 10.185732,16.477733" style="opacity:.8;fill:none;stroke:url(#linearGradient3535);stroke-width:1;stroke-linecap:round;stroke-linejoin:round;stroke-miterlimit:4;stroke-opacity:1;stroke-dasharray:none;stroke-dashoffset:0"/><path id="path3781-3" d="m 12.947397,17.40588 a 2.630872,2.630872 0 0 1 -5.261744,0 2.630872,2.630872 0 1 1 5.261744,0 z" style="opacity:.8;color:#000;fill:#fff;fill-opacity:1;fill-rule:nonzero;stroke:#fff;stroke-width:1.00042665;stroke-linecap:round;stroke-linejoin:round;stroke-miterlimit:4;stroke-opacity:.52127662;stroke-dasharray:none;stroke-dashoffset:0;marker:none;visibility:visible;display:inline;overflow:visible;enable-background:accumulate"/><path id="path3613-2" d="M 52.277164,12.68986 A 12.497974,28.284887 45 0 0 10.459861,42.885913" style="opacity:.8;fill:none;stroke:url(#linearGradient3531);stroke-width:1;stroke-linecap:round;stroke-linejoin:round;stroke-miterlimit:4;stroke-opacity:1;stroke-dasharray:none;stroke-dashoffset:0"/><path id="path3615-8" d="m 10.072947,47.290705 a 2.630872,2.630872 0 0 0 0,-5.261744 2.630872,2.630872 0 1 0 0,5.261744 z" style="opacity:.8;fill:#fff;fill-opacity:1;stroke:#fff;stroke-width:1.00042665;stroke-linecap:round;stroke-linejoin:round;stroke-miterlimit:4;stroke-opacity:.52127662;stroke-dasharray:none;stroke-dashoffset:0"/><path id="path3787-6" d="M 11.830366,52.171273 A 12.497974,28.284887 45 0 0 52.643654,13.234675" style="fill:none;stroke:url(#linearGradient3527);stroke-width:1;stroke-linecap:round;stroke-linejoin:round;stroke-miterlimit:4;stroke-opacity:1;stroke-dasharray:none;stroke-dashoffset:0"/><path id="path2835-7" d="M 56.114604,25.451706 A 28.284887,12.497974 0 0 0 3.769582,32.584826" style="fill:none;stroke:url(#linearGradient3524);stroke-width:1;stroke-linecap:round;stroke-linejoin:round;stroke-miterlimit:4;stroke-opacity:1;stroke-dasharray:none;stroke-dashoffset:0"/><path id="path3722-4" d="m 59.239244,25.956982 a 2.6308716,2.6308716 0 0 0 -5.26174,0 2.6308716,2.6308716 0 1 0 5.26174,0 z" style="opacity:.8;color:#000;fill:#fff;fill-opacity:1;fill-rule:nonzero;stroke:#fff;stroke-width:1.00042665;stroke-linecap:round;stroke-linejoin:round;stroke-miterlimit:4;stroke-opacity:.52127662;stroke-dasharray:none;stroke-dashoffset:0;marker:none;visibility:visible;display:inline;overflow:visible;enable-background:accumulate"/><path id="path3797-3" d="M 3.908871,33.36953 A 28.284887,12.497974 0 0 0 60.261234,32.72199" style="fill:none;stroke:url(#linearGradient3520);stroke-width:1;stroke-linecap:round;stroke-linejoin:round;stroke-miterlimit:4;stroke-opacity:1;stroke-dasharray:none;stroke-dashoffset:0"/><path id="path2555-7-1" d="m 32,2.499999 c -16.277082,0 -29.5,13.222915 -29.5,29.499998 0,16.277083 13.222918,29.500005 29.5,29.5 16.27708,0 29.50001,-13.222917 29.5,-29.5 C 61.5,15.722914 48.27708,2.499999 32,2.499999 z" style="opacity:.4;color:#000;fill:none;stroke:#2b2200;stroke-width:1;stroke-linecap:butt;stroke-linejoin:miter;stroke-miterlimit:4;stroke-opacity:1;stroke-dasharray:none;stroke-dashoffset:0;marker:none;visibility:visible;display:inline;overflow:visible;enable-background:accumulate"/><path id="path3026-5" d="m 60.499998,32 c 0,15.740111 -12.7599,28.499991 -28.500011,28.499991 C 16.259892,60.499991 3.5000025,47.740111 3.5000025,32 3.5000025,16.259889 16.259892,3.500005 31.999987,3.500005 47.740098,3.500005 60.499998,16.259889 60.499998,32 z" style="opacity:.5;color:#000;fill:none;stroke:url(#linearGradient3549);stroke-width:1;stroke-linecap:round;stroke-linejoin:round;stroke-miterlimit:4;stroke-opacity:1;stroke-dasharray:none;stroke-dashoffset:0;marker:none;visibility:visible;display:inline;overflow:visible;enable-background:accumulate"/><path id="path2555-1" d="M 48.000003,32.5 C 39.447637,32.5 32.5,39.447634 32.5,47.999998 32.5,56.552366 39.447637,63.500004 48.000003,63.5 56.552364,63.5 63.500009,56.552366 63.5,47.999998 63.5,39.447634 56.552364,32.5 48.000003,32.5 z" style="fill:url(#radialGradient4405);fill-opacity:1;stroke:none"/><path id="path2463-6" d="m 62.5,47.999485 c 0,8.008388 -6.49235,14.500514 -14.499816,14.500514 C 39.991983,62.499999 33.5,56.007801 33.5,47.999485 33.5,39.99147 39.991983,33.500001 48.000184,33.500001 56.00765,33.500001 62.5,39.99147 62.5,47.999485 l 0,0 z" style="opacity:.4;fill:none;stroke:url(#linearGradient4402);stroke-width:1;stroke-miterlimit:4;stroke-opacity:1;stroke-dasharray:none"/><path id="path3360-8" d="m 36,47 c 7.999999,0 16.000001,0 24,0 0,-0.333333 0,-0.666667 0,-1 -7.999999,0 -16.000001,0 -24,0 0,0.333333 0,0.666667 0,1 z" style="font-size:89.63063812px;font-style:normal;font-variant:normal;font-weight:400;font-stretch:normal;text-align:start;line-height:125%;writing-mode:lr-tb;text-anchor:start;opacity:.2;fill:#000;fill-opacity:1;stroke:none;font-family:Georgia"/><path id="path3271-6" d="m 36,51 c 7.999999,0 16.000001,0 24,0 0,-1.333331 0,-2.666666 0,-4 -7.999999,0 -16.000001,0 -24,0 0,1.333334 0,2.666669 0,4 z" style="font-size:89.63063812px;font-style:normal;font-variant:normal;font-weight:400;font-stretch:normal;text-align:start;line-height:125%;writing-mode:lr-tb;text-anchor:start;fill:#fff;fill-opacity:1;stroke:none;font-family:Georgia"/><path id="path2555-4-9" d="m 48.000015,32.501851 c -8.551351,0 -15.498164,6.94681 -15.498164,15.498159 0,8.551353 6.946813,15.498167 15.498164,15.498163 8.551346,0 15.498167,-6.94681 15.498158,-15.498163 0,-8.551349 -6.946812,-15.498159 -15.498158,-15.498159 z" style="opacity:.3;fill:none;stroke:#000;stroke-width:1.00365424;stroke-linecap:round;stroke-linejoin:round;stroke-miterlimit:4;stroke-opacity:1;stroke-dasharray:none;stroke-dashoffset:0"/></g></svg>