<svg xmlns="http://www.w3.org/2000/svg" xmlns:svg="http://www.w3.org/2000/svg" xmlns:xlink="http://www.w3.org/1999/xlink" id="svg4332" width="64" height="64" version="1.1"><defs id="defs4334"><linearGradient id="linearGradient4176"><stop style="stop-color:#fafafa;stop-opacity:1" id="stop4178" offset="0"/><stop style="stop-color:#8cd5ff;stop-opacity:1" id="stop4180" offset="1"/></linearGradient><linearGradient id="linearGradient4225-5" x1="38.856" x2="38.856" y1="26.32" y2="32.522" gradientTransform="matrix(0.99215968,0,0,-0.9932415,0.25417006,63.794031)" gradientUnits="userSpaceOnUse" xlink:href="#linearGradient4213-9"/><linearGradient id="linearGradient4213-9"><stop id="stop4215-4" offset="0" style="stop-color:#000;stop-opacity:1"/><stop id="stop4217-1" offset="1" style="stop-color:#000;stop-opacity:0"/></linearGradient><linearGradient id="linearGradient3904" x1="24" x2="24" y1="5.909" y2="42.092" gradientTransform="matrix(1.4324324,0,0,1.4362832,-2.3783747,-2.4707827)" gradientUnits="userSpaceOnUse" xlink:href="#linearGradient4270"/><linearGradient id="linearGradient4270"><stop id="stop4272" offset="0" style="stop-color:#fff;stop-opacity:1"/><stop id="stop4274" offset=".035" style="stop-color:#fff;stop-opacity:.23529412"/><stop id="stop4276" offset=".962" style="stop-color:#fff;stop-opacity:.15686275"/><stop id="stop4278" offset="1" style="stop-color:#fff;stop-opacity:.39215687"/></linearGradient><radialGradient id="radialGradient4147" cx="6.73" cy="9.957" r="12.672" fx="6.2" fy="9.957" gradientTransform="matrix(0,13.393984,-16.443533,0,196.90205,-114.89368)" gradientUnits="userSpaceOnUse" xlink:href="#linearGradient2867-449-88-871-390-598-476-591-434-148-57-177-8-3-3-6-4-8-8-8-5"/><linearGradient id="linearGradient2867-449-88-871-390-598-476-591-434-148-57-177-8-3-3-6-4-8-8-8-5"><stop id="stop3750-1-0-7-6-6-1-3-9-3" offset="0" style="stop-color:#8cd5ff;stop-opacity:1"/><stop id="stop3752-3-7-4-0-32-8-923-0-7" offset=".262" style="stop-color:#3689e6;stop-opacity:1"/><stop id="stop3754-1-8-5-2-7-6-7-1-9" offset=".705" style="stop-color:#0d52bf;stop-opacity:1"/><stop id="stop3756-1-6-2-6-6-1-96-6-0" offset="1" style="stop-color:#002e99;stop-opacity:1"/></linearGradient><radialGradient id="radialGradient2873-966-168-714" cx="4.993" cy="43.5" r="2.5" fx="4.993" fy="43.5" gradientTransform="matrix(2.003784,0,0,1.4,27.98813,-17.4)" gradientUnits="userSpaceOnUse" xlink:href="#linearGradient3688-166-749-654"/><linearGradient id="linearGradient3688-166-749-654"><stop style="stop-color:#181818;stop-opacity:1" id="stop3088" offset="0"/><stop style="stop-color:#181818;stop-opacity:0" id="stop3090" offset="1"/></linearGradient><radialGradient id="radialGradient2875-742-326-419" cx="4.993" cy="43.5" r="2.5" fx="4.993" fy="43.5" gradientTransform="matrix(2.003784,0,0,1.4,-20.01187,-104.4)" gradientUnits="userSpaceOnUse" xlink:href="#linearGradient3688-464-309-604"/><linearGradient id="linearGradient3688-464-309-604"><stop style="stop-color:#181818;stop-opacity:1" id="stop3094" offset="0"/><stop style="stop-color:#181818;stop-opacity:0" id="stop3096" offset="1"/></linearGradient><linearGradient id="linearGradient2877-634-617-908" x1="25.058" x2="25.058" y1="47.028" y2="39.999" gradientUnits="userSpaceOnUse" xlink:href="#linearGradient3702-501-757-795"/><linearGradient id="linearGradient3702-501-757-795"><stop style="stop-color:#181818;stop-opacity:0" id="stop3100" offset="0"/><stop style="stop-color:#181818;stop-opacity:1" id="stop3102" offset=".5"/><stop style="stop-color:#181818;stop-opacity:0" id="stop3104" offset="1"/></linearGradient><linearGradient id="linearGradient4182" x1="31.802" x2="31.802" y1="18.624" y2="84.25" gradientUnits="userSpaceOnUse" xlink:href="#linearGradient4176"/></defs><metadata id="metadata4337"/><g id="g4285"><g id="g4178"><g id="g3712" transform="matrix(1.5789502,0,0,0.7142857,-5.8947511,28.428574)" style="opacity:.4"><rect id="rect2801" width="5" height="7" x="38" y="40" style="fill:url(#radialGradient2873-966-168-714);fill-opacity:1;stroke:none"/><rect id="rect3696" width="5" height="7" x="-10" y="-47" transform="scale(-1,-1)" style="fill:url(#radialGradient2875-742-326-419);fill-opacity:1;stroke:none"/><rect id="rect3700" width="28" height="7" x="10" y="40" style="fill:url(#linearGradient2877-634-617-908);fill-opacity:1;stroke:none"/></g><rect id="rect5505-21-3-8-5-2-9" width="55" height="55" x="4.5" y="4.5" rx="3" ry="3" style="color:#000;display:inline;overflow:visible;visibility:visible;fill:url(#radialGradient4147);fill-opacity:1;fill-rule:nonzero;stroke:none;stroke-width:.99999994;marker:none;enable-background:accumulate"/><rect style="opacity:.3;fill:none;stroke:url(#linearGradient3904);stroke-width:1;stroke-linecap:round;stroke-linejoin:round;stroke-miterlimit:4;stroke-dasharray:none;stroke-dashoffset:0;stroke-opacity:1" id="rect6741" width="53" height="53.142" x="5.5" y="5.429" rx="2" ry="2"/><rect style="color:#000;display:inline;overflow:visible;visibility:visible;opacity:.7;fill:none;stroke:#002e99;stroke-width:1;stroke-linecap:round;stroke-linejoin:round;stroke-miterlimit:4;stroke-dasharray:none;stroke-dashoffset:0;stroke-opacity:1;marker:none;enable-background:accumulate" id="rect5505-21-9" width="55" height="55" x="4.5" y="4.5" rx="3" ry="3"/></g><path id="path4283" d="m 17,15.999765 c -1.662,0 -3,1.338 -3,3 l 0,22 c 0,1.662 1.338,3 3,3 l 9.46875,0 2.255859,2.212891 2.623047,2.574218 c 0.290079,0.284168 1.014609,0.284168 1.304688,0 l 2.623047,-2.574218 2.255859,-2.212891 9.46875,0 c 1.662,0 3,-1.338 3,-3 l 0,-22 c 0,-1.662 -1.338,-3 -3,-3 l -30,0 z m 15,4 a 10,10 0 0 1 10,10 10,10 0 0 1 -10,10 10,10 0 0 1 -10,-10 10,10 0 0 1 10,-10 z m 0,1.734375 A 8.2644628,8.2644628 0 0 0 23.734375,29.999765 8.2644628,8.2644628 0 0 0 32,38.26539 8.2644628,8.2644628 0 0 0 40.265625,29.999765 8.2644628,8.2644628 0 0 0 32,21.73414 Z m 0,1.189453 a 3.7190083,3.7190083 0 0 1 3.720703,3.71875 A 3.7190083,3.7190083 0 0 1 32,30.361093 3.7190083,3.7190083 0 0 1 28.279297,26.642343 3.7190083,3.7190083 0 0 1 32,22.923593 Z m 0,8.523438 a 7.4380165,7.4380165 0 0 1 5.955078,2.99414 A 7.4380165,7.4380165 0 0 1 32,37.437265 7.4380165,7.4380165 0 0 1 26.044922,34.443124 7.4380165,7.4380165 0 0 1 32,31.447031 Z" style="color:#000;clip-rule:nonzero;display:inline;overflow:visible;visibility:visible;opacity:.07;isolation:auto;mix-blend-mode:normal;color-interpolation:sRGB;color-interpolation-filters:linearRGB;solid-color:#000;solid-opacity:1;fill:#000;fill-opacity:1;fill-rule:nonzero;stroke:#000;stroke-width:2;stroke-linecap:round;stroke-linejoin:round;stroke-miterlimit:4;stroke-dasharray:none;stroke-dashoffset:0;stroke-opacity:1;marker:none;color-rendering:auto;image-rendering:auto;shape-rendering:auto;text-rendering:auto;enable-background:accumulate"/><path style="color:#000;clip-rule:nonzero;display:inline;overflow:visible;visibility:visible;opacity:.15;isolation:auto;mix-blend-mode:normal;color-interpolation:sRGB;color-interpolation-filters:linearRGB;solid-color:#000;solid-opacity:1;fill:#000;fill-opacity:1;fill-rule:nonzero;stroke:none;stroke-width:1;stroke-linecap:round;stroke-linejoin:round;stroke-miterlimit:4;stroke-dasharray:none;stroke-dashoffset:0;stroke-opacity:1;marker:none;color-rendering:auto;image-rendering:auto;shape-rendering:auto;text-rendering:auto;enable-background:accumulate" id="path4281" d="m 17,15.999765 c -1.662,0 -3,1.338 -3,3 l 0,22 c 0,1.662 1.338,3 3,3 l 9.46875,0 2.255859,2.212891 2.623047,2.574218 c 0.290079,0.284168 1.014609,0.284168 1.304688,0 l 2.623047,-2.574218 2.255859,-2.212891 9.46875,0 c 1.662,0 3,-1.338 3,-3 l 0,-22 c 0,-1.662 -1.338,-3 -3,-3 l -30,0 z m 15,4 a 10,10 0 0 1 10,10 10,10 0 0 1 -10,10 10,10 0 0 1 -10,-10 10,10 0 0 1 10,-10 z m 0,1.734375 A 8.2644628,8.2644628 0 0 0 23.734375,29.999765 8.2644628,8.2644628 0 0 0 32,38.26539 8.2644628,8.2644628 0 0 0 40.265625,29.999765 8.2644628,8.2644628 0 0 0 32,21.73414 Z m 0,1.189453 a 3.7190083,3.7190083 0 0 1 3.720703,3.71875 A 3.7190083,3.7190083 0 0 1 32,30.361093 3.7190083,3.7190083 0 0 1 28.279297,26.642343 3.7190083,3.7190083 0 0 1 32,22.923593 Z m 0,8.523438 a 7.4380165,7.4380165 0 0 1 5.955078,2.99414 A 7.4380165,7.4380165 0 0 1 32,37.437265 7.4380165,7.4380165 0 0 1 26.044922,34.443124 7.4380165,7.4380165 0 0 1 32,31.447031 Z"/><path id="rect4256" d="m 17,14.999765 c -1.662,0 -3,1.338 -3,3 l 0,22 c 0,1.662 1.338,3 3,3 l 9.46875,0 2.255859,2.212891 2.623047,2.574218 c 0.290079,0.284168 1.014609,0.284168 1.304688,0 l 2.623047,-2.574218 2.255859,-2.212891 9.46875,0 c 1.662,0 3,-1.338 3,-3 l 0,-22 c 0,-1.662 -1.338,-3 -3,-3 l -30,0 z m 15,4 a 10,10 0 0 1 10,10 10,10 0 0 1 -10,10 10,10 0 0 1 -10,-10 10,10 0 0 1 10,-10 z m 0,1.734375 A 8.2644628,8.2644628 0 0 0 23.734375,28.999765 8.2644628,8.2644628 0 0 0 32,37.26539 8.2644628,8.2644628 0 0 0 40.265625,28.999765 8.2644628,8.2644628 0 0 0 32,20.73414 Z m 0,1.189453 a 3.7190083,3.7190083 0 0 1 3.720703,3.71875 A 3.7190083,3.7190083 0 0 1 32,29.361093 3.7190083,3.7190083 0 0 1 28.279297,25.642343 3.7190083,3.7190083 0 0 1 32,21.923593 Z m 0,8.523438 a 7.4380165,7.4380165 0 0 1 5.955078,2.99414 A 7.4380165,7.4380165 0 0 1 32,36.437265 7.4380165,7.4380165 0 0 1 26.044922,33.443124 7.4380165,7.4380165 0 0 1 32,30.447031 Z" style="color:#000;clip-rule:nonzero;display:inline;overflow:visible;visibility:visible;opacity:1;isolation:auto;mix-blend-mode:normal;color-interpolation:sRGB;color-interpolation-filters:linearRGB;solid-color:#000;solid-opacity:1;fill:url(#linearGradient4182);fill-opacity:1;fill-rule:nonzero;stroke:none;stroke-width:1;stroke-linecap:round;stroke-linejoin:round;stroke-miterlimit:4;stroke-dasharray:none;stroke-dashoffset:0;stroke-opacity:1;marker:none;color-rendering:auto;image-rendering:auto;shape-rendering:auto;text-rendering:auto;enable-background:accumulate"/></g></svg>