<svg xmlns="http://www.w3.org/2000/svg" xmlns:svg="http://www.w3.org/2000/svg" xmlns:xlink="http://www.w3.org/1999/xlink" id="svg4332" width="64" height="64" version="1.1"><defs id="defs4334"><linearGradient id="linearGradient4208"><stop style="stop-color:#3a9104;stop-opacity:1" id="stop4210" offset="0"/><stop style="stop-color:#206b00;stop-opacity:1" id="stop4212" offset="1"/></linearGradient><linearGradient id="linearGradient4225-5" x1="38.856" x2="38.856" y1="26.32" y2="32.522" gradientTransform="matrix(0.99215968,0,0,-0.9932415,0.25417006,63.794031)" gradientUnits="userSpaceOnUse" xlink:href="#linearGradient4213-9"/><linearGradient id="linearGradient4213-9"><stop id="stop4215-4" offset="0" style="stop-color:#000;stop-opacity:1"/><stop id="stop4217-1" offset="1" style="stop-color:#000;stop-opacity:0"/></linearGradient><linearGradient id="linearGradient3904" x1="24" x2="24" y1="5.909" y2="42.092" gradientTransform="matrix(1.4324324,0,0,1.4362832,-2.3783747,-2.4707827)" gradientUnits="userSpaceOnUse" xlink:href="#linearGradient4270"/><linearGradient id="linearGradient4270"><stop id="stop4272" offset="0" style="stop-color:#fff;stop-opacity:1"/><stop id="stop4274" offset=".035" style="stop-color:#fff;stop-opacity:.23529412"/><stop id="stop4276" offset=".962" style="stop-color:#fff;stop-opacity:.15686275"/><stop id="stop4278" offset="1" style="stop-color:#fff;stop-opacity:.39215687"/></linearGradient><radialGradient id="radialGradient4147" cx="6.73" cy="9.957" r="12.672" fx="6.2" fy="9.957" gradientTransform="matrix(0,13.393984,-16.443533,0,196.90205,-114.89368)" gradientUnits="userSpaceOnUse" xlink:href="#linearGradient2867-449-88-871-390-598-476-591-434-148-57-177-8-3-3-6-4-8-8-8-5"/><linearGradient id="linearGradient2867-449-88-871-390-598-476-591-434-148-57-177-8-3-3-6-4-8-8-8-5"><stop id="stop3750-1-0-7-6-6-1-3-9-3" offset="0" style="stop-color:#d1ff82;stop-opacity:1"/><stop id="stop3752-3-7-4-0-32-8-923-0-7" offset=".262" style="stop-color:#9bdb4d;stop-opacity:1"/><stop id="stop3754-1-8-5-2-7-6-7-1-9" offset=".705" style="stop-color:#206b00;stop-opacity:1"/><stop id="stop3756-1-6-2-6-6-1-96-6-0" offset="1" style="stop-color:#154600;stop-opacity:1"/></linearGradient><radialGradient id="radialGradient2873-966-168-714" cx="4.993" cy="43.5" r="2.5" fx="4.993" fy="43.5" gradientTransform="matrix(2.003784,0,0,1.4,27.98813,-17.4)" gradientUnits="userSpaceOnUse" xlink:href="#linearGradient3688-166-749-654"/><linearGradient id="linearGradient3688-166-749-654"><stop style="stop-color:#181818;stop-opacity:1" id="stop3088" offset="0"/><stop style="stop-color:#181818;stop-opacity:0" id="stop3090" offset="1"/></linearGradient><radialGradient id="radialGradient2875-742-326-419" cx="4.993" cy="43.5" r="2.5" fx="4.993" fy="43.5" gradientTransform="matrix(2.003784,0,0,1.4,-20.01187,-104.4)" gradientUnits="userSpaceOnUse" xlink:href="#linearGradient3688-464-309-604"/><linearGradient id="linearGradient3688-464-309-604"><stop style="stop-color:#181818;stop-opacity:1" id="stop3094" offset="0"/><stop style="stop-color:#181818;stop-opacity:0" id="stop3096" offset="1"/></linearGradient><linearGradient id="linearGradient2877-634-617-908" x1="25.058" x2="25.058" y1="47.028" y2="39.999" gradientUnits="userSpaceOnUse" xlink:href="#linearGradient3702-501-757-795"/><linearGradient id="linearGradient3702-501-757-795"><stop style="stop-color:#181818;stop-opacity:0" id="stop3100" offset="0"/><stop style="stop-color:#181818;stop-opacity:1" id="stop3102" offset=".5"/><stop style="stop-color:#181818;stop-opacity:0" id="stop3104" offset="1"/></linearGradient><linearGradient id="linearGradient4214" x1="34.476" x2="34.476" y1="10.352" y2="38.752" gradientUnits="userSpaceOnUse" xlink:href="#linearGradient4208"/></defs><metadata id="metadata4337"/><g id="g4194"><g id="g4180"><g id="g3712" transform="matrix(1.5789502,0,0,0.7142857,-5.8947511,28.428574)" style="opacity:.4"><rect id="rect2801" width="5" height="7" x="38" y="40" style="fill:url(#radialGradient2873-966-168-714);fill-opacity:1;stroke:none"/><rect id="rect3696" width="5" height="7" x="-10" y="-47" transform="scale(-1,-1)" style="fill:url(#radialGradient2875-742-326-419);fill-opacity:1;stroke:none"/><rect id="rect3700" width="28" height="7" x="10" y="40" style="fill:url(#linearGradient2877-634-617-908);fill-opacity:1;stroke:none"/></g><rect id="rect5505-21-3-8-5-2-9" width="55" height="55" x="4.5" y="4.5" rx="3" ry="3" style="color:#000;display:inline;overflow:visible;visibility:visible;fill:url(#radialGradient4147);fill-opacity:1;fill-rule:nonzero;stroke:none;stroke-width:.99999994;marker:none;enable-background:accumulate"/><rect style="opacity:.3;fill:none;stroke:url(#linearGradient3904);stroke-width:1;stroke-linecap:round;stroke-linejoin:round;stroke-miterlimit:4;stroke-dasharray:none;stroke-dashoffset:0;stroke-opacity:1" id="rect6741" width="53" height="53.142" x="5.5" y="5.429" rx="2" ry="2"/><rect style="color:#000;display:inline;overflow:visible;visibility:visible;opacity:.5;fill:none;stroke:#206b00;stroke-width:1;stroke-linecap:round;stroke-linejoin:round;stroke-miterlimit:4;stroke-dasharray:none;stroke-dashoffset:0;stroke-opacity:1;marker:none;enable-background:accumulate" id="rect5505-21-9" width="55" height="55" x="4.5" y="4.5" rx="3" ry="3"/></g><g id="text4171" transform="matrix(0.99779167,0,0,1.0022132,-2.4000008,4.6250024)" style="font-style:italic;font-variant:normal;font-weight:700;font-stretch:normal;font-size:47.16297531px;line-height:125%;font-family:'Bitstream Charter';-inkscape-font-specification:'Bitstream Charter, Bold Italic';text-align:start;letter-spacing:0;word-spacing:0;writing-mode:lr-tb;text-anchor:start;fill:#000;fill-opacity:1;stroke:none;stroke-width:1px;stroke-linecap:butt;stroke-linejoin:miter;stroke-opacity:1"><path id="path4191" d="m 35.631629,11.349878 -16.554205,29.288208 -2.641126,0.377303 0,2.263823 10.14004,0 0,-2.310986 -2.782616,-0.188651 -0.47163,-0.707445 4.338994,-7.92338 10.517343,0 1.320564,7.829054 -0.518793,0.707445 -2.876941,0.282977 0,2.310986 12.403862,0 0,-2.310986 -2.735453,-0.33014 -0.471629,-0.613119 -4.810624,-28.675089 -4.857786,0 z m 0.141489,5.942535 1.933682,12.262373 -8.630825,0 6.697143,-12.262373 z" style="opacity:.5;fill:#fafafa"/><path style="fill:url(#linearGradient4214);fill-opacity:1" id="path4176" d="m 35.631629,10.352087 -16.554205,29.288208 -2.641126,0.377303 0,2.263823 10.14004,0 0,-2.310986 -2.782616,-0.188651 -0.47163,-0.707445 4.338994,-7.92338 10.517343,0 1.320564,7.829054 -0.518793,0.707445 -2.876941,0.282977 0,2.310986 12.403862,0 0,-2.310986 -2.735453,-0.33014 -0.471629,-0.613119 -4.810624,-28.675089 -4.857786,0 z m 0.141489,5.942535 1.933682,12.262373 -8.630825,0 6.697143,-12.262373 z"/><path style="opacity:.07000002;fill:#000;fill-opacity:1" id="path4201" d="M 33.152344,14 16.634766,43.353516 14,43.730469 l 0,2 2.634766,-0.376953 L 33.152344,16 38,16 42.800781,44.738281 43.271484,45.353516 46,45.683594 l 0,-2 L 43.271484,43.353516 42.800781,42.738281 38,14 33.152344,14 Z m -5.453125,18.246094 -1.087891,2 8.611328,0 -0.314453,-2 -7.208984,0 z m 9.039062,10.820312 -0.24414,0.333985 -2.871094,0.283203 0,2 2.871094,-0.283203 0.517578,-0.708985 -0.273438,-1.625 z m -15.171875,0.44336 -0.695312,1.27539 0.470703,0.708985 2.775391,0.189453 0,-2 -2.550782,-0.173828 z" transform="matrix(1.0022132,0,0,0.99779169,2.4053125,-3.616997)"/><path style="opacity:.15;fill:#000;fill-opacity:1" id="path4195" d="M 33.152344,14 16.634766,43.353516 14,43.730469 l 0,1 2.634766,-0.376953 L 33.152344,15 38,15 42.800781,43.738281 43.271484,44.353516 46,44.683594 l 0,-1 L 43.271484,43.353516 42.800781,42.738281 38,14 33.152344,14 Z m -5.998047,18.246094 -0.542969,1 8.611328,0 -0.15625,-1 -7.912109,0 z m 9.720703,10.632812 -0.380859,0.521485 -2.871094,0.283203 0,1 2.871094,-0.283203 0.517578,-0.708985 -0.136719,-0.8125 z m -15.705078,0.357422 -0.298828,0.548828 0.470703,0.708985 2.775391,0.189453 0,-1 -2.775391,-0.189453 -0.171875,-0.257813 z" transform="matrix(1.0022132,0,0,0.99779169,2.4053125,-3.616997)"/></g></g></svg>