<svg xmlns="http://www.w3.org/2000/svg" xmlns:svg="http://www.w3.org/2000/svg" xmlns:xlink="http://www.w3.org/1999/xlink" id="svg4332" width="64" height="64" version="1.1"><defs id="defs4334"><linearGradient id="linearGradient4174"><stop style="stop-color:#fafafa;stop-opacity:1" id="stop4176" offset="0"/><stop style="stop-color:#8cd5ff;stop-opacity:1" id="stop4178" offset="1"/></linearGradient><linearGradient id="linearGradient4225-5" x1="38.856" x2="38.856" y1="26.32" y2="32.522" gradientTransform="matrix(0.99215968,0,0,-0.9932415,0.25417006,63.794031)" gradientUnits="userSpaceOnUse" xlink:href="#linearGradient4213-9"/><linearGradient id="linearGradient4213-9"><stop id="stop4215-4" offset="0" style="stop-color:#000;stop-opacity:1"/><stop id="stop4217-1" offset="1" style="stop-color:#000;stop-opacity:0"/></linearGradient><linearGradient id="linearGradient3904" x1="24" x2="24" y1="5.909" y2="43.495" gradientTransform="matrix(1.4324324,0,0,1.4362832,-2.3783747,-2.4707827)" gradientUnits="userSpaceOnUse" xlink:href="#linearGradient4270"/><linearGradient id="linearGradient4270"><stop id="stop4272" offset="0" style="stop-color:#fff;stop-opacity:1"/><stop id="stop4274" offset=".035" style="stop-color:#fff;stop-opacity:.23529412"/><stop id="stop4276" offset=".962" style="stop-color:#fff;stop-opacity:.15686275"/><stop id="stop4278" offset="1" style="stop-color:#fff;stop-opacity:.39215687"/></linearGradient><radialGradient id="radialGradient4147" cx="6.73" cy="9.957" r="12.672" fx="6.2" fy="9.957" gradientTransform="matrix(0,13.393984,-16.443533,0,196.90205,-114.89368)" gradientUnits="userSpaceOnUse" xlink:href="#linearGradient2867-449-88-871-390-598-476-591-434-148-57-177-8-3-3-6-4-8-8-8-5"/><linearGradient id="linearGradient2867-449-88-871-390-598-476-591-434-148-57-177-8-3-3-6-4-8-8-8-5"><stop id="stop3750-1-0-7-6-6-1-3-9-3" offset="0" style="stop-color:#8cd5ff;stop-opacity:1"/><stop id="stop3752-3-7-4-0-32-8-923-0-7" offset=".262" style="stop-color:#3689e6;stop-opacity:1"/><stop id="stop3754-1-8-5-2-7-6-7-1-9" offset=".705" style="stop-color:#0d52bf;stop-opacity:1"/><stop id="stop3756-1-6-2-6-6-1-96-6-0" offset="1" style="stop-color:#002e99;stop-opacity:1"/></linearGradient><radialGradient id="radialGradient2873-966-168-714" cx="4.993" cy="43.5" r="2.5" fx="4.993" fy="43.5" gradientTransform="matrix(2.003784,0,0,1.4,27.98813,-17.4)" gradientUnits="userSpaceOnUse" xlink:href="#linearGradient3688-166-749-654"/><linearGradient id="linearGradient3688-166-749-654"><stop style="stop-color:#181818;stop-opacity:1" id="stop3088" offset="0"/><stop style="stop-color:#181818;stop-opacity:0" id="stop3090" offset="1"/></linearGradient><radialGradient id="radialGradient2875-742-326-419" cx="4.993" cy="43.5" r="2.5" fx="4.993" fy="43.5" gradientTransform="matrix(2.003784,0,0,1.4,-48.01187,-104.4)" gradientUnits="userSpaceOnUse" xlink:href="#linearGradient3688-464-309-604"/><linearGradient id="linearGradient3688-464-309-604"><stop style="stop-color:#181818;stop-opacity:1" id="stop3094" offset="0"/><stop style="stop-color:#181818;stop-opacity:0" id="stop3096" offset="1"/></linearGradient><linearGradient id="linearGradient2877-634-617-908" x1="25.058" x2="25.058" y1="47.028" y2="39.999" gradientUnits="userSpaceOnUse" xlink:href="#linearGradient3702-501-757-795"/><linearGradient id="linearGradient3702-501-757-795"><stop style="stop-color:#181818;stop-opacity:0" id="stop3100" offset="0"/><stop style="stop-color:#181818;stop-opacity:1" id="stop3102" offset=".5"/><stop style="stop-color:#181818;stop-opacity:0" id="stop3104" offset="1"/></linearGradient><linearGradient id="linearGradient4180" x1="32" x2="32" y1="14" y2="85.907" gradientUnits="userSpaceOnUse" xlink:href="#linearGradient4174"/></defs><metadata id="metadata4337"/><g id="g4337"><g style="opacity:.4" id="g3712" transform="matrix(1.5789502,0,0,0.7142857,-5.8947511,28.428574)"><g id="g4333" transform="translate(-14.000034,0)"><rect id="rect2801" width="5" height="7" x="38" y="40" style="fill:url(#radialGradient2873-966-168-714);fill-opacity:1;stroke:none"/><rect id="rect3696" width="5" height="7" x="-38" y="-47" transform="scale(-1,-1)" style="fill:url(#radialGradient2875-742-326-419);fill-opacity:1;stroke:none"/></g></g><path id="rect5505-21-3-8-5-2-9" d="M 7.5 4.5 C 5.838 4.5 4.5 5.838 4.5 7.5 L 4.5 46 C 4.5 47.662 5.838 49 7.5 49 L 20.074219 49 L 24.515625 53.376953 L 30.853516 59.623047 C 31.364215 60.124816 32.635785 60.124816 33.146484 59.623047 L 39.484375 53.376953 L 43.925781 49 L 56.5 49 C 58.162 49 59.5 47.662 59.5 46 L 59.5 7.5 C 59.5 5.838 58.162 4.5 56.5 4.5 L 7.5 4.5 z" style="color:#000;display:inline;overflow:visible;visibility:visible;fill:url(#radialGradient4147);fill-opacity:1;fill-rule:nonzero;stroke:none;stroke-width:.99999994;marker:none;enable-background:accumulate"/><path style="color:#000;clip-rule:nonzero;display:inline;overflow:visible;visibility:visible;opacity:.07;isolation:auto;mix-blend-mode:normal;color-interpolation:sRGB;color-interpolation-filters:linearRGB;solid-color:#000;solid-opacity:1;fill:#000;fill-opacity:1;fill-rule:nonzero;stroke:#000;stroke-width:2;stroke-linecap:round;stroke-linejoin:round;stroke-miterlimit:4;stroke-dasharray:none;stroke-dashoffset:0;stroke-opacity:1;marker:none;color-rendering:auto;image-rendering:auto;shape-rendering:auto;text-rendering:auto;enable-background:accumulate" id="path4331" d="M 32,11 A 16,16 0 0 0 16,27 16,16 0 0 0 32,43 16,16 0 0 0 48,27 16,16 0 0 0 32,11 Z m 0,1.454545 a 14.545455,14.545455 0 0 0 -1.25,0.0625 14.545455,14.545455 0 0 1 1.25,-0.0625 z m 1.25,0.06249 a 14.545455,14.545455 0 0 1 0.661931,0.07955 A 14.545455,14.545455 0 0 0 33.25,12.517037 Z m -3.161931,0.07955 a 14.545455,14.545455 0 0 0 -0.78125,0.119312 14.545455,14.545455 0 0 1 0.78125,-0.119312 z m 4.605112,0.119312 a 14.545455,14.545455 0 0 1 0.690342,0.153408 14.545455,14.545455 0 0 0 -0.690342,-0.153408 z m -6.076704,0.153408 a 14.545455,14.545455 0 0 0 -0.710228,0.184658 14.545455,14.545455 0 0 1 0.710228,-0.184658 z m 7.477274,0.184658 a 14.545455,14.545455 0 0 1 0.693182,0.227273 14.545455,14.545455 0 0 0 -0.693182,-0.227273 z m -8.880684,0.227273 a 14.545455,14.545455 0 0 0 -0.667612,0.244319 14.545455,14.545455 0 0 1 0.667612,-0.244319 z m 10.241478,0.244319 a 14.545455,14.545455 0 0 1 0.698864,0.312501 14.545455,14.545455 0 0 0 -0.698864,-0.312501 z M 32,13.775568 A 13.223141,13.223141 0 0 1 45.224432,27 13.223141,13.223141 0 0 1 32,40.224432 13.223141,13.223141 0 0 1 18.775568,27 13.223141,13.223141 0 0 1 32,13.775568 Z m -6.153409,0.06249 a 14.545455,14.545455 0 0 0 -0.622159,0.301141 14.545455,14.545455 0 0 1 0.622159,-0.301136 z m 12.928977,0.301141 a 14.545455,14.545455 0 0 1 0.676136,0.389203 14.545455,14.545455 0 0 0 -0.676136,-0.389203 z m -14.227272,0.389203 a 14.545455,14.545455 0 0 0 -0.562501,0.34375 14.545455,14.545455 0 0 1 0.562501,-0.34375 z m 15.465909,0.34375 a 14.545455,14.545455 0 0 1 0.602272,0.428978 14.545455,14.545455 0 0 0 -0.602272,-0.428978 z m -16.630682,0.428983 a 14.545455,14.545455 0 0 0 -0.602274,0.460229 14.545455,14.545455 0 0 1 0.602274,-0.460229 z M 32,15.678977 A 5.9504133,5.9504133 0 0 0 26.048296,21.627841 5.9504133,5.9504133 0 0 0 32,27.579545 5.9504133,5.9504133 0 0 0 37.951704,21.627841 5.9504133,5.9504133 0 0 0 32,15.678977 Z m 9.218751,0.08239 a 14.545455,14.545455 0 0 1 0.5,0.440339 14.545455,14.545455 0 0 0 -0.5,-0.440339 z m -18.937502,0.440339 a 14.545455,14.545455 0 0 0 -0.559657,0.519888 14.545455,14.545455 0 0 1 0.559657,-0.519888 z m 19.997159,0.519888 a 14.545455,14.545455 0 0 1 0.519888,0.559658 14.545455,14.545455 0 0 0 -0.519888,-0.559658 z m -21.076704,0.559658 a 14.545455,14.545455 0 0 0 -0.440339,0.5 14.545455,14.545455 0 0 1 0.440339,-0.5 z m 22.036931,0.5 a 14.545455,14.545455 0 0 1 0.460229,0.602274 14.545455,14.545455 0 0 0 -0.460229,-0.602274 z M 20.301136,18.383528 A 14.545455,14.545455 0 0 0 19.872159,18.9858 14.545455,14.545455 0 0 1 20.301136,18.383528 Z M 44.127841,18.9858 a 14.545455,14.545455 0 0 1 0.343751,0.562501 14.545455,14.545455 0 0 0 -0.343751,-0.562501 z m -24.599433,0.562501 a 14.545455,14.545455 0 0 0 -0.389203,0.676136 14.545455,14.545455 0 0 1 0.389203,-0.676136 z m 25.332387,0.676136 a 14.545455,14.545455 0 0 1 0.301136,0.622158 14.545455,14.545455 0 0 0 -0.301136,-0.622158 z m -26.022726,0.622154 a 14.545455,14.545455 0 0 0 -0.312501,0.698864 14.545455,14.545455 0 0 1 0.312501,-0.698864 z m 26.636363,0.698864 a 14.545455,14.545455 0 0 1 0.244319,0.667612 14.545455,14.545455 0 0 0 -0.244319,-0.667612 z m -27.193183,0.667612 a 14.545455,14.545455 0 0 0 -0.227273,0.693182 14.545455,14.545455 0 0 1 0.227273,-0.693182 z m 27.664775,0.693182 a 14.545455,14.545455 0 0 1 0.184657,0.710228 14.545455,14.545455 0 0 0 -0.184657,-0.710228 z m -28.076705,0.710228 a 14.545455,14.545455 0 0 0 -0.153408,0.690342 14.545455,14.545455 0 0 1 0.153408,-0.690342 z m 28.41477,0.690342 a 14.545455,14.545455 0 0 1 0.119312,0.78125 14.545455,14.545455 0 0 0 -0.119312,-0.78125 z m -28.687498,0.78125 A 14.545455,14.545455 0 0 0 17.517041,25.75 14.545455,14.545455 0 0 1 17.596591,25.088069 Z M 46.482953,25.75 a 14.545455,14.545455 0 0 1 0.06249,1.25 14.545455,14.545455 0 0 0 -0.06249,-1.25 z M 17.454545,27 a 14.545455,14.545455 0 0 0 0.06249,1.25 14.545455,14.545455 0 0 1 -0.06249,-1.25 z m 29.028408,1.25 a 14.545455,14.545455 0 0 1 -0.07953,0.661931 14.545455,14.545455 0 0 0 0.07953,-0.661931 z m -28.886362,0.661931 a 14.545455,14.545455 0 0 0 0.119312,0.78125 14.545455,14.545455 0 0 1 -0.119312,-0.78125 z M 32,29.315341 A 11.900826,11.900826 0 0 0 22.471592,34.110795 11.900826,11.900826 0 0 0 32,38.900568 11.900826,11.900826 0 0 0 41.528408,34.105113 11.900826,11.900826 0 0 0 32,29.315341 Z m 14.284089,0.37784 a 14.545455,14.545455 0 0 1 -0.153408,0.690342 14.545455,14.545455 0 0 0 0.153408,-0.690342 z m -28.41477,0.690342 a 14.545455,14.545455 0 0 0 0.184657,0.710228 14.545455,14.545455 0 0 1 -0.184657,-0.710228 z m 28.076705,0.710228 a 14.545455,14.545455 0 0 1 -0.227273,0.693182 14.545455,14.545455 0 0 0 0.227273,-0.693182 z m -27.664775,0.693182 a 14.545455,14.545455 0 0 0 0.244319,0.667612 14.545455,14.545455 0 0 1 -0.244319,-0.667612 z m 27.193183,0.667612 a 14.545455,14.545455 0 0 1 -0.312501,0.698864 14.545455,14.545455 0 0 0 0.312501,-0.698864 z m -26.636363,0.698864 a 14.545455,14.545455 0 0 0 0.301136,0.622159 14.545455,14.545455 0 0 1 -0.301136,-0.622159 z m 26.022726,0.622159 a 14.545455,14.545455 0 0 1 -0.389203,0.676136 14.545455,14.545455 0 0 0 0.389203,-0.676136 z m -25.332387,0.676136 a 14.545455,14.545455 0 0 0 0.343751,0.562501 14.545455,14.545455 0 0 1 -0.343751,-0.562501 z m 24.599433,0.562501 a 14.545455,14.545455 0 0 1 -0.428977,0.602272 14.545455,14.545455 0 0 0 0.428977,-0.602272 z m -23.826705,0.602272 a 14.545455,14.545455 0 0 0 0.460229,0.602274 14.545455,14.545455 0 0 1 -0.460229,-0.602274 z m 22.937499,0.602274 a 14.545455,14.545455 0 0 1 -0.440339,0.5 14.545455,14.545455 0 0 0 0.440339,-0.5 z m -22.036931,0.5 a 14.545455,14.545455 0 0 0 0.519888,0.559657 14.545455,14.545455 0 0 1 -0.519888,-0.559657 z m 21.076704,0.559657 a 14.545455,14.545455 0 0 1 -0.559657,0.519888 14.545455,14.545455 0 0 0 0.559657,-0.519888 z m -19.997159,0.519888 a 14.545455,14.545455 0 0 0 0.5,0.440339 14.545455,14.545455 0 0 1 -0.5,-0.440339 z m 18.937502,0.440339 a 14.545455,14.545455 0 0 1 -0.602274,0.460229 14.545455,14.545455 0 0 0 0.602274,-0.460229 z m -17.835228,0.460229 a 14.545455,14.545455 0 0 0 0.602272,0.428977 14.545455,14.545455 0 0 1 -0.602272,-0.428977 z m 16.630682,0.428977 a 14.545455,14.545455 0 0 1 -0.562501,0.343751 14.545455,14.545455 0 0 0 0.562501,-0.343751 z m -15.465909,0.343751 a 14.545455,14.545455 0 0 0 0.676136,0.389203 14.545455,14.545455 0 0 1 -0.676136,-0.389203 z m 14.227272,0.389203 a 14.545455,14.545455 0 0 1 -0.622159,0.301136 14.545455,14.545455 0 0 0 0.622159,-0.301136 z m -12.928977,0.301136 a 14.545455,14.545455 0 0 0 0.698864,0.312501 14.545455,14.545455 0 0 1 -0.698864,-0.312501 z m 11.607954,0.312501 a 14.545455,14.545455 0 0 1 -0.667612,0.244319 14.545455,14.545455 0 0 0 0.667612,-0.244319 z m -10.241478,0.244319 a 14.545455,14.545455 0 0 0 0.693182,0.227273 14.545455,14.545455 0 0 1 -0.693182,-0.227273 z m 8.880684,0.227273 a 14.545455,14.545455 0 0 1 -0.710228,0.184657 14.545455,14.545455 0 0 0 0.710228,-0.184657 z m -7.477274,0.184657 a 14.545455,14.545455 0 0 0 0.690342,0.153408 14.545455,14.545455 0 0 1 -0.690342,-0.153408 z m 6.076704,0.153408 a 14.545455,14.545455 0 0 1 -0.78125,0.119312 14.545455,14.545455 0 0 0 0.78125,-0.119312 z m -4.605112,0.119312 A 14.545455,14.545455 0 0 0 30.75,41.482933 14.545455,14.545455 0 0 1 30.088069,41.403401 Z M 33.25,41.482933 a 14.545455,14.545455 0 0 1 -1.25,0.06251 14.545455,14.545455 0 0 0 1.25,-0.06249 z"/><path id="rect6741" d="M 7.5 5.4296875 C 6.392 5.4296875 5.5 6.3216875 5.5 7.4296875 L 5.5 46 C 5.5 47.108 6.392 48 7.5 48 L 20.470703 48 L 24.515625 51.986328 L 30.853516 58.230469 C 32.000813 59.377766 31.999187 59.357705 33.146484 58.230469 L 39.484375 51.986328 L 43.529297 48 L 56.5 48 C 57.608 48 58.5 47.108 58.5 46 L 58.5 7.4296875 C 58.5 6.3216875 57.608 5.4296875 56.5 5.4296875 L 7.5 5.4296875 z" style="opacity:.3;fill:none;stroke:url(#linearGradient3904);stroke-width:1;stroke-linecap:round;stroke-linejoin:round;stroke-miterlimit:4;stroke-dasharray:none;stroke-dashoffset:0;stroke-opacity:1"/><path id="rect5505-21-9" d="M 7.5 4.5 C 5.838 4.5 4.5 5.838 4.5 7.5 L 4.5 46 C 4.5 47.662 5.838 49 7.5 49 L 20.074219 49 L 24.515625 53.376953 L 30.853516 59.623047 C 31.364215 60.124816 32.635785 60.124816 33.146484 59.623047 L 39.484375 53.376953 L 43.925781 49 L 56.5 49 C 58.162 49 59.5 47.662 59.5 46 L 59.5 7.5 C 59.5 5.838 58.162 4.5 56.5 4.5 L 7.5 4.5 z" style="color:#000;display:inline;overflow:visible;visibility:visible;opacity:.7;fill:none;stroke:#002e99;stroke-width:1;stroke-linecap:round;stroke-linejoin:round;stroke-miterlimit:4;stroke-dasharray:none;stroke-dashoffset:0;stroke-opacity:1;marker:none;enable-background:accumulate"/><path id="path4329" d="M 32,11 A 16,16 0 0 0 16,27 16,16 0 0 0 32,43 16,16 0 0 0 48,27 16,16 0 0 0 32,11 Z m 0,1.454545 a 14.545455,14.545455 0 0 0 -1.25,0.0625 14.545455,14.545455 0 0 1 1.25,-0.0625 z m 1.25,0.06249 a 14.545455,14.545455 0 0 1 0.661931,0.07955 A 14.545455,14.545455 0 0 0 33.25,12.517037 Z m -3.161931,0.07955 a 14.545455,14.545455 0 0 0 -0.78125,0.119312 14.545455,14.545455 0 0 1 0.78125,-0.119312 z m 4.605112,0.119312 a 14.545455,14.545455 0 0 1 0.690342,0.153408 14.545455,14.545455 0 0 0 -0.690342,-0.153408 z m -6.076704,0.153408 a 14.545455,14.545455 0 0 0 -0.710228,0.184658 14.545455,14.545455 0 0 1 0.710228,-0.184658 z m 7.477274,0.184658 a 14.545455,14.545455 0 0 1 0.693182,0.227273 14.545455,14.545455 0 0 0 -0.693182,-0.227273 z m -8.880684,0.227273 a 14.545455,14.545455 0 0 0 -0.667612,0.244319 14.545455,14.545455 0 0 1 0.667612,-0.244319 z m 10.241478,0.244319 a 14.545455,14.545455 0 0 1 0.698864,0.312501 14.545455,14.545455 0 0 0 -0.698864,-0.312501 z M 32,13.775568 A 13.223141,13.223141 0 0 1 45.224432,27 13.223141,13.223141 0 0 1 32,40.224432 13.223141,13.223141 0 0 1 18.775568,27 13.223141,13.223141 0 0 1 32,13.775568 Z m -6.153409,0.06249 a 14.545455,14.545455 0 0 0 -0.622159,0.301141 14.545455,14.545455 0 0 1 0.622159,-0.301136 z m 12.928977,0.301141 a 14.545455,14.545455 0 0 1 0.676136,0.389203 14.545455,14.545455 0 0 0 -0.676136,-0.389203 z m -14.227272,0.389203 a 14.545455,14.545455 0 0 0 -0.562501,0.34375 14.545455,14.545455 0 0 1 0.562501,-0.34375 z m 15.465909,0.34375 a 14.545455,14.545455 0 0 1 0.602272,0.428978 14.545455,14.545455 0 0 0 -0.602272,-0.428978 z m -16.630682,0.428983 a 14.545455,14.545455 0 0 0 -0.602274,0.460229 14.545455,14.545455 0 0 1 0.602274,-0.460229 z M 32,15.678977 A 5.9504133,5.9504133 0 0 0 26.048296,21.627841 5.9504133,5.9504133 0 0 0 32,27.579545 5.9504133,5.9504133 0 0 0 37.951704,21.627841 5.9504133,5.9504133 0 0 0 32,15.678977 Z m 9.218751,0.08239 a 14.545455,14.545455 0 0 1 0.5,0.440339 14.545455,14.545455 0 0 0 -0.5,-0.440339 z m -18.937502,0.440339 a 14.545455,14.545455 0 0 0 -0.559657,0.519888 14.545455,14.545455 0 0 1 0.559657,-0.519888 z m 19.997159,0.519888 a 14.545455,14.545455 0 0 1 0.519888,0.559658 14.545455,14.545455 0 0 0 -0.519888,-0.559658 z m -21.076704,0.559658 a 14.545455,14.545455 0 0 0 -0.440339,0.5 14.545455,14.545455 0 0 1 0.440339,-0.5 z m 22.036931,0.5 a 14.545455,14.545455 0 0 1 0.460229,0.602274 14.545455,14.545455 0 0 0 -0.460229,-0.602274 z M 20.301136,18.383528 A 14.545455,14.545455 0 0 0 19.872159,18.9858 14.545455,14.545455 0 0 1 20.301136,18.383528 Z M 44.127841,18.9858 a 14.545455,14.545455 0 0 1 0.343751,0.562501 14.545455,14.545455 0 0 0 -0.343751,-0.562501 z m -24.599433,0.562501 a 14.545455,14.545455 0 0 0 -0.389203,0.676136 14.545455,14.545455 0 0 1 0.389203,-0.676136 z m 25.332387,0.676136 a 14.545455,14.545455 0 0 1 0.301136,0.622158 14.545455,14.545455 0 0 0 -0.301136,-0.622158 z m -26.022726,0.622154 a 14.545455,14.545455 0 0 0 -0.312501,0.698864 14.545455,14.545455 0 0 1 0.312501,-0.698864 z m 26.636363,0.698864 a 14.545455,14.545455 0 0 1 0.244319,0.667612 14.545455,14.545455 0 0 0 -0.244319,-0.667612 z m -27.193183,0.667612 a 14.545455,14.545455 0 0 0 -0.227273,0.693182 14.545455,14.545455 0 0 1 0.227273,-0.693182 z m 27.664775,0.693182 a 14.545455,14.545455 0 0 1 0.184657,0.710228 14.545455,14.545455 0 0 0 -0.184657,-0.710228 z m -28.076705,0.710228 a 14.545455,14.545455 0 0 0 -0.153408,0.690342 14.545455,14.545455 0 0 1 0.153408,-0.690342 z m 28.41477,0.690342 a 14.545455,14.545455 0 0 1 0.119312,0.78125 14.545455,14.545455 0 0 0 -0.119312,-0.78125 z m -28.687498,0.78125 A 14.545455,14.545455 0 0 0 17.517041,25.75 14.545455,14.545455 0 0 1 17.596591,25.088069 Z M 46.482953,25.75 a 14.545455,14.545455 0 0 1 0.06249,1.25 14.545455,14.545455 0 0 0 -0.06249,-1.25 z M 17.454545,27 a 14.545455,14.545455 0 0 0 0.06249,1.25 14.545455,14.545455 0 0 1 -0.06249,-1.25 z m 29.028408,1.25 a 14.545455,14.545455 0 0 1 -0.07953,0.661931 14.545455,14.545455 0 0 0 0.07953,-0.661931 z m -28.886362,0.661931 a 14.545455,14.545455 0 0 0 0.119312,0.78125 14.545455,14.545455 0 0 1 -0.119312,-0.78125 z M 32,29.315341 A 11.900826,11.900826 0 0 0 22.471592,34.110795 11.900826,11.900826 0 0 0 32,38.900568 11.900826,11.900826 0 0 0 41.528408,34.105113 11.900826,11.900826 0 0 0 32,29.315341 Z m 14.284089,0.37784 a 14.545455,14.545455 0 0 1 -0.153408,0.690342 14.545455,14.545455 0 0 0 0.153408,-0.690342 z m -28.41477,0.690342 a 14.545455,14.545455 0 0 0 0.184657,0.710228 14.545455,14.545455 0 0 1 -0.184657,-0.710228 z m 28.076705,0.710228 a 14.545455,14.545455 0 0 1 -0.227273,0.693182 14.545455,14.545455 0 0 0 0.227273,-0.693182 z m -27.664775,0.693182 a 14.545455,14.545455 0 0 0 0.244319,0.667612 14.545455,14.545455 0 0 1 -0.244319,-0.667612 z m 27.193183,0.667612 a 14.545455,14.545455 0 0 1 -0.312501,0.698864 14.545455,14.545455 0 0 0 0.312501,-0.698864 z m -26.636363,0.698864 a 14.545455,14.545455 0 0 0 0.301136,0.622159 14.545455,14.545455 0 0 1 -0.301136,-0.622159 z m 26.022726,0.622159 a 14.545455,14.545455 0 0 1 -0.389203,0.676136 14.545455,14.545455 0 0 0 0.389203,-0.676136 z m -25.332387,0.676136 a 14.545455,14.545455 0 0 0 0.343751,0.562501 14.545455,14.545455 0 0 1 -0.343751,-0.562501 z m 24.599433,0.562501 a 14.545455,14.545455 0 0 1 -0.428977,0.602272 14.545455,14.545455 0 0 0 0.428977,-0.602272 z m -23.826705,0.602272 a 14.545455,14.545455 0 0 0 0.460229,0.602274 14.545455,14.545455 0 0 1 -0.460229,-0.602274 z m 22.937499,0.602274 a 14.545455,14.545455 0 0 1 -0.440339,0.5 14.545455,14.545455 0 0 0 0.440339,-0.5 z m -22.036931,0.5 a 14.545455,14.545455 0 0 0 0.519888,0.559657 14.545455,14.545455 0 0 1 -0.519888,-0.559657 z m 21.076704,0.559657 a 14.545455,14.545455 0 0 1 -0.559657,0.519888 14.545455,14.545455 0 0 0 0.559657,-0.519888 z m -19.997159,0.519888 a 14.545455,14.545455 0 0 0 0.5,0.440339 14.545455,14.545455 0 0 1 -0.5,-0.440339 z m 18.937502,0.440339 a 14.545455,14.545455 0 0 1 -0.602274,0.460229 14.545455,14.545455 0 0 0 0.602274,-0.460229 z m -17.835228,0.460229 a 14.545455,14.545455 0 0 0 0.602272,0.428977 14.545455,14.545455 0 0 1 -0.602272,-0.428977 z m 16.630682,0.428977 a 14.545455,14.545455 0 0 1 -0.562501,0.343751 14.545455,14.545455 0 0 0 0.562501,-0.343751 z m -15.465909,0.343751 a 14.545455,14.545455 0 0 0 0.676136,0.389203 14.545455,14.545455 0 0 1 -0.676136,-0.389203 z m 14.227272,0.389203 a 14.545455,14.545455 0 0 1 -0.622159,0.301136 14.545455,14.545455 0 0 0 0.622159,-0.301136 z m -12.928977,0.301136 a 14.545455,14.545455 0 0 0 0.698864,0.312501 14.545455,14.545455 0 0 1 -0.698864,-0.312501 z m 11.607954,0.312501 a 14.545455,14.545455 0 0 1 -0.667612,0.244319 14.545455,14.545455 0 0 0 0.667612,-0.244319 z m -10.241478,0.244319 a 14.545455,14.545455 0 0 0 0.693182,0.227273 14.545455,14.545455 0 0 1 -0.693182,-0.227273 z m 8.880684,0.227273 a 14.545455,14.545455 0 0 1 -0.710228,0.184657 14.545455,14.545455 0 0 0 0.710228,-0.184657 z m -7.477274,0.184657 a 14.545455,14.545455 0 0 0 0.690342,0.153408 14.545455,14.545455 0 0 1 -0.690342,-0.153408 z m 6.076704,0.153408 a 14.545455,14.545455 0 0 1 -0.78125,0.119312 14.545455,14.545455 0 0 0 0.78125,-0.119312 z m -4.605112,0.119312 A 14.545455,14.545455 0 0 0 30.75,41.482933 14.545455,14.545455 0 0 1 30.088069,41.403401 Z M 33.25,41.482933 a 14.545455,14.545455 0 0 1 -1.25,0.06251 14.545455,14.545455 0 0 0 1.25,-0.06249 z" style="color:#000;clip-rule:nonzero;display:inline;overflow:visible;visibility:visible;opacity:.15;isolation:auto;mix-blend-mode:normal;color-interpolation:sRGB;color-interpolation-filters:linearRGB;solid-color:#000;solid-opacity:1;fill:#000;fill-opacity:1;fill-rule:nonzero;stroke:none;stroke-width:1;stroke-linecap:round;stroke-linejoin:round;stroke-miterlimit:4;stroke-dasharray:none;stroke-dashoffset:0;stroke-opacity:1;marker:none;color-rendering:auto;image-rendering:auto;shape-rendering:auto;text-rendering:auto;enable-background:accumulate"/><path style="color:#000;clip-rule:nonzero;display:inline;overflow:visible;visibility:visible;opacity:1;isolation:auto;mix-blend-mode:normal;color-interpolation:sRGB;color-interpolation-filters:linearRGB;solid-color:#000;solid-opacity:1;fill:url(#linearGradient4180);fill-opacity:1;fill-rule:nonzero;stroke:none;stroke-width:1;stroke-linecap:round;stroke-linejoin:round;stroke-miterlimit:4;stroke-dasharray:none;stroke-dashoffset:0;stroke-opacity:1;marker:none;color-rendering:auto;image-rendering:auto;shape-rendering:auto;text-rendering:auto;enable-background:accumulate" id="path4263" d="M 32,10 A 16,16 0 0 0 16,26 16,16 0 0 0 32,42 16,16 0 0 0 48,26 16,16 0 0 0 32,10 Z m 0,1.454545 a 14.545455,14.545455 0 0 0 -1.25,0.0625 14.545455,14.545455 0 0 1 1.25,-0.0625 z m 1.25,0.06249 a 14.545455,14.545455 0 0 1 0.661931,0.07955 A 14.545455,14.545455 0 0 0 33.25,11.517037 Z m -3.161931,0.07955 a 14.545455,14.545455 0 0 0 -0.78125,0.119312 14.545455,14.545455 0 0 1 0.78125,-0.119312 z m 4.605112,0.119312 a 14.545455,14.545455 0 0 1 0.690342,0.153408 14.545455,14.545455 0 0 0 -0.690342,-0.153408 z m -6.076704,0.153408 a 14.545455,14.545455 0 0 0 -0.710228,0.184658 14.545455,14.545455 0 0 1 0.710228,-0.184658 z m 7.477274,0.184658 a 14.545455,14.545455 0 0 1 0.693182,0.227273 14.545455,14.545455 0 0 0 -0.693182,-0.227273 z m -8.880684,0.227273 a 14.545455,14.545455 0 0 0 -0.667612,0.244319 14.545455,14.545455 0 0 1 0.667612,-0.244319 z m 10.241478,0.244319 a 14.545455,14.545455 0 0 1 0.698864,0.312501 14.545455,14.545455 0 0 0 -0.698864,-0.312501 z M 32,12.775568 A 13.223141,13.223141 0 0 1 45.224432,26 13.223141,13.223141 0 0 1 32,39.224432 13.223141,13.223141 0 0 1 18.775568,26 13.223141,13.223141 0 0 1 32,12.775568 Z m -6.153409,0.06249 a 14.545455,14.545455 0 0 0 -0.622159,0.301141 14.545455,14.545455 0 0 1 0.622159,-0.301136 z m 12.928977,0.301141 a 14.545455,14.545455 0 0 1 0.676136,0.389203 14.545455,14.545455 0 0 0 -0.676136,-0.389203 z m -14.227272,0.389203 a 14.545455,14.545455 0 0 0 -0.562501,0.34375 14.545455,14.545455 0 0 1 0.562501,-0.34375 z m 15.465909,0.34375 a 14.545455,14.545455 0 0 1 0.602272,0.428978 14.545455,14.545455 0 0 0 -0.602272,-0.428978 z m -16.630682,0.428983 a 14.545455,14.545455 0 0 0 -0.602274,0.460229 14.545455,14.545455 0 0 1 0.602274,-0.460229 z M 32,14.678977 A 5.9504133,5.9504133 0 0 0 26.048296,20.627841 5.9504133,5.9504133 0 0 0 32,26.579545 5.9504133,5.9504133 0 0 0 37.951704,20.627841 5.9504133,5.9504133 0 0 0 32,14.678977 Z m 9.218751,0.08239 a 14.545455,14.545455 0 0 1 0.5,0.440339 14.545455,14.545455 0 0 0 -0.5,-0.440339 z m -18.937502,0.440339 a 14.545455,14.545455 0 0 0 -0.559657,0.519888 14.545455,14.545455 0 0 1 0.559657,-0.519888 z m 19.997159,0.519888 a 14.545455,14.545455 0 0 1 0.519888,0.559658 14.545455,14.545455 0 0 0 -0.519888,-0.559658 z m -21.076704,0.559658 a 14.545455,14.545455 0 0 0 -0.440339,0.5 14.545455,14.545455 0 0 1 0.440339,-0.5 z m 22.036931,0.5 a 14.545455,14.545455 0 0 1 0.460229,0.602274 14.545455,14.545455 0 0 0 -0.460229,-0.602274 z M 20.301136,17.383528 A 14.545455,14.545455 0 0 0 19.872159,17.9858 14.545455,14.545455 0 0 1 20.301136,17.383528 Z M 44.127841,17.9858 a 14.545455,14.545455 0 0 1 0.343751,0.562501 14.545455,14.545455 0 0 0 -0.343751,-0.562501 z m -24.599433,0.562501 a 14.545455,14.545455 0 0 0 -0.389203,0.676136 14.545455,14.545455 0 0 1 0.389203,-0.676136 z m 25.332387,0.676136 a 14.545455,14.545455 0 0 1 0.301136,0.622158 14.545455,14.545455 0 0 0 -0.301136,-0.622158 z m -26.022726,0.622154 a 14.545455,14.545455 0 0 0 -0.312501,0.698864 14.545455,14.545455 0 0 1 0.312501,-0.698864 z m 26.636363,0.698864 a 14.545455,14.545455 0 0 1 0.244319,0.667612 14.545455,14.545455 0 0 0 -0.244319,-0.667612 z m -27.193183,0.667612 a 14.545455,14.545455 0 0 0 -0.227273,0.693182 14.545455,14.545455 0 0 1 0.227273,-0.693182 z m 27.664775,0.693182 a 14.545455,14.545455 0 0 1 0.184657,0.710228 14.545455,14.545455 0 0 0 -0.184657,-0.710228 z m -28.076705,0.710228 a 14.545455,14.545455 0 0 0 -0.153408,0.690342 14.545455,14.545455 0 0 1 0.153408,-0.690342 z m 28.41477,0.690342 a 14.545455,14.545455 0 0 1 0.119312,0.78125 14.545455,14.545455 0 0 0 -0.119312,-0.78125 z m -28.687498,0.78125 A 14.545455,14.545455 0 0 0 17.517041,24.75 14.545455,14.545455 0 0 1 17.596591,24.088069 Z M 46.482953,24.75 a 14.545455,14.545455 0 0 1 0.06249,1.25 14.545455,14.545455 0 0 0 -0.06249,-1.25 z M 17.454545,26 a 14.545455,14.545455 0 0 0 0.06249,1.25 14.545455,14.545455 0 0 1 -0.06249,-1.25 z m 29.028408,1.25 a 14.545455,14.545455 0 0 1 -0.07953,0.661931 14.545455,14.545455 0 0 0 0.07953,-0.661931 z m -28.886362,0.661931 a 14.545455,14.545455 0 0 0 0.119312,0.78125 14.545455,14.545455 0 0 1 -0.119312,-0.78125 z M 32,28.315341 A 11.900826,11.900826 0 0 0 22.471592,33.110795 11.900826,11.900826 0 0 0 32,37.900568 11.900826,11.900826 0 0 0 41.528408,33.105113 11.900826,11.900826 0 0 0 32,28.315341 Z m 14.284089,0.37784 a 14.545455,14.545455 0 0 1 -0.153408,0.690342 14.545455,14.545455 0 0 0 0.153408,-0.690342 z m -28.41477,0.690342 a 14.545455,14.545455 0 0 0 0.184657,0.710228 14.545455,14.545455 0 0 1 -0.184657,-0.710228 z m 28.076705,0.710228 a 14.545455,14.545455 0 0 1 -0.227273,0.693182 14.545455,14.545455 0 0 0 0.227273,-0.693182 z m -27.664775,0.693182 a 14.545455,14.545455 0 0 0 0.244319,0.667612 14.545455,14.545455 0 0 1 -0.244319,-0.667612 z m 27.193183,0.667612 a 14.545455,14.545455 0 0 1 -0.312501,0.698864 14.545455,14.545455 0 0 0 0.312501,-0.698864 z m -26.636363,0.698864 a 14.545455,14.545455 0 0 0 0.301136,0.622159 14.545455,14.545455 0 0 1 -0.301136,-0.622159 z m 26.022726,0.622159 a 14.545455,14.545455 0 0 1 -0.389203,0.676136 14.545455,14.545455 0 0 0 0.389203,-0.676136 z m -25.332387,0.676136 a 14.545455,14.545455 0 0 0 0.343751,0.562501 14.545455,14.545455 0 0 1 -0.343751,-0.562501 z m 24.599433,0.562501 a 14.545455,14.545455 0 0 1 -0.428977,0.602272 14.545455,14.545455 0 0 0 0.428977,-0.602272 z m -23.826705,0.602272 a 14.545455,14.545455 0 0 0 0.460229,0.602274 14.545455,14.545455 0 0 1 -0.460229,-0.602274 z m 22.937499,0.602274 a 14.545455,14.545455 0 0 1 -0.440339,0.5 14.545455,14.545455 0 0 0 0.440339,-0.5 z m -22.036931,0.5 a 14.545455,14.545455 0 0 0 0.519888,0.559657 14.545455,14.545455 0 0 1 -0.519888,-0.559657 z m 21.076704,0.559657 a 14.545455,14.545455 0 0 1 -0.559657,0.519888 14.545455,14.545455 0 0 0 0.559657,-0.519888 z m -19.997159,0.519888 a 14.545455,14.545455 0 0 0 0.5,0.440339 14.545455,14.545455 0 0 1 -0.5,-0.440339 z m 18.937502,0.440339 a 14.545455,14.545455 0 0 1 -0.602274,0.460229 14.545455,14.545455 0 0 0 0.602274,-0.460229 z m -17.835228,0.460229 a 14.545455,14.545455 0 0 0 0.602272,0.428977 14.545455,14.545455 0 0 1 -0.602272,-0.428977 z m 16.630682,0.428977 a 14.545455,14.545455 0 0 1 -0.562501,0.343751 14.545455,14.545455 0 0 0 0.562501,-0.343751 z m -15.465909,0.343751 a 14.545455,14.545455 0 0 0 0.676136,0.389203 14.545455,14.545455 0 0 1 -0.676136,-0.389203 z m 14.227272,0.389203 a 14.545455,14.545455 0 0 1 -0.622159,0.301136 14.545455,14.545455 0 0 0 0.622159,-0.301136 z m -12.928977,0.301136 a 14.545455,14.545455 0 0 0 0.698864,0.312501 14.545455,14.545455 0 0 1 -0.698864,-0.312501 z m 11.607954,0.312501 a 14.545455,14.545455 0 0 1 -0.667612,0.244319 14.545455,14.545455 0 0 0 0.667612,-0.244319 z m -10.241478,0.244319 a 14.545455,14.545455 0 0 0 0.693182,0.227273 14.545455,14.545455 0 0 1 -0.693182,-0.227273 z m 8.880684,0.227273 a 14.545455,14.545455 0 0 1 -0.710228,0.184657 14.545455,14.545455 0 0 0 0.710228,-0.184657 z m -7.477274,0.184657 a 14.545455,14.545455 0 0 0 0.690342,0.153408 14.545455,14.545455 0 0 1 -0.690342,-0.153408 z m 6.076704,0.153408 a 14.545455,14.545455 0 0 1 -0.78125,0.119312 14.545455,14.545455 0 0 0 0.78125,-0.119312 z m -4.605112,0.119312 A 14.545455,14.545455 0 0 0 30.75,40.482933 14.545455,14.545455 0 0 1 30.088069,40.403401 Z M 33.25,40.482933 a 14.545455,14.545455 0 0 1 -1.25,0.06251 14.545455,14.545455 0 0 0 1.25,-0.06249 z"/></g></svg>